<?xml version="1.0" encoding="UTF-8" standalone="no"?>
<!-- Created with Inkscape (http://www.inkscape.org/) -->

<svg
   width="10.000001mm"
   height="10.000004mm"
   viewBox="0 0 10.000001 10.000004"
   version="1.1"
   id="svg1"
   xml:space="preserve"
   xmlns="http://www.w3.org/2000/svg"
   xmlns:svg="http://www.w3.org/2000/svg"><defs
     id="defs1" /><g
     id="layer1"
     transform="translate(28.477742,-238.63818)"><path
       style="fill:#f9f9f9;stroke-width:0.586622"
       d="m -23.731955,248.63234 c -0.530222,-0.0255 -1.084846,-0.1462 -1.594582,-0.34722 -0.208974,-0.0824 -0.57571,-0.26547 -0.760268,-0.37951 -0.618397,-0.38213 -1.13004,-0.8706 -1.539106,-1.4694 -0.312571,-0.45755 -0.566073,-1.0237 -0.703607,-1.57138 -0.109245,-0.43504 -0.148925,-0.76596 -0.148213,-1.23609 7.05e-4,-0.47065 0.04132,-0.79907 0.153003,-1.2375 0.136488,-0.53581 0.39106,-1.10099 0.698817,-1.55149 0.40885,-0.5985 0.921036,-1.08748 1.539106,-1.4694 0.184558,-0.11404 0.551294,-0.29712 0.760268,-0.37953 0.976362,-0.38502 2.036666,-0.45652 3.052057,-0.20582 0.374084,0.0923 0.682782,0.20677 1.038394,0.38485 0.512545,0.25667 0.935157,0.56475 1.336036,0.97396 0.619794,0.63266 1.057069,1.41049 1.27383,2.26589 0.107925,0.42591 0.147754,0.75295 0.14846,1.21904 4.69e-4,0.30998 -0.007,0.43362 -0.04155,0.68801 -0.114261,0.84122 -0.442855,1.63844 -0.959157,2.32707 -0.368932,0.49207 -0.847492,0.92642 -1.390217,1.26179 -0.184558,0.11404 -0.551294,0.29711 -0.760268,0.37951 -0.667947,0.2634 -1.384397,0.38169 -2.103,0.34722 z m 1.599205,-1.9965 c 0.433742,-0.0435 0.71798,-0.137 0.979464,-0.32235 0.11142,-0.079 0.273698,-0.24093 0.354018,-0.35329 0.119652,-0.16736 0.226049,-0.41524 0.273352,-0.63681 0.05698,-0.26695 0.06628,-0.50405 0.06625,-1.69003 -3.3e-5,-1.21089 -0.0092,-1.43458 -0.07024,-1.70709 -0.05161,-0.23057 -0.157859,-0.47262 -0.278385,-0.6342 -0.07839,-0.10511 -0.22518,-0.25267 -0.323823,-0.32555 -0.193172,-0.14273 -0.42764,-0.242 -0.700204,-0.29649 -0.266025,-0.0531 -0.804087,-0.0706 -1.931988,-0.0626 -0.786806,0.006 -1.020673,0.013 -1.219405,0.0387 -0.481811,0.0621 -0.846789,0.25008 -1.118097,0.57563 -0.199412,0.23928 -0.322224,0.5403 -0.370391,0.90786 -0.03083,0.23527 -0.03694,0.48423 -0.03694,1.50384 0,1.15252 0.0076,1.36237 0.05966,1.64847 0.01707,0.0938 0.06438,0.25181 0.107463,0.3589 0.07898,0.19634 0.185377,0.35585 0.339897,0.50959 0.125893,0.12526 0.234783,0.20425 0.387583,0.28112 0.265008,0.13333 0.521949,0.19191 0.930461,0.21213 0.236293,0.0117 2.423597,0.005 2.551333,-0.008 z m -2.371075,-0.52782 c -0.441526,-0.0154 -0.634422,-0.0483 -0.83309,-0.14222 -0.115679,-0.0547 -0.188269,-0.10587 -0.281664,-0.19869 -0.117053,-0.11633 -0.18727,-0.22956 -0.246657,-0.39774 -0.08754,-0.24789 -0.103594,-0.51615 -0.103694,-1.73235 -9.7e-5,-1.19779 0.01429,-1.45946 0.09414,-1.71215 0.05868,-0.18572 0.139656,-0.31707 0.275201,-0.44645 0.120652,-0.11515 0.231312,-0.17887 0.409026,-0.23552 0.249888,-0.0796 0.50739,-0.0938 1.708191,-0.0938 0.770574,0 1.177514,0.008 1.372728,0.0282 0.627766,0.0637 0.983423,0.39057 1.072051,0.98522 0.02659,0.17842 0.03403,0.41497 0.03904,1.24216 0.0049,0.81609 -0.0042,1.37659 -0.02592,1.59086 -0.03778,0.37262 -0.159038,0.63751 -0.377057,0.82369 -0.204575,0.1747 -0.446684,0.25412 -0.856015,0.28078 -0.186212,0.0122 -1.948598,0.0184 -2.246282,0.008 z m 1.226662,-0.93695 c 0.249528,-0.033 0.485312,-0.12577 0.696244,-0.27412 0.103142,-0.0725 0.287193,-0.25512 0.358557,-0.35568 0.293941,-0.41424 0.370025,-0.91563 0.212745,-1.40199 -0.123836,-0.38294 -0.432026,-0.72989 -0.807186,-0.9087 -0.114098,-0.0543 -0.233244,-0.0946 -0.363617,-0.12286 -0.081,-0.0175 -0.122654,-0.0204 -0.301948,-0.0205 -0.182102,-1.7e-4 -0.220069,0.002 -0.305051,0.0208 -0.621586,0.13437 -1.089823,0.60098 -1.220234,1.21599 -0.02564,0.1209 -0.03462,0.3562 -0.01878,0.49211 0.0417,0.35796 0.204882,0.6822 0.472052,0.93796 0.341733,0.32716 0.807043,0.47907 1.277221,0.41702 z m -0.411019,-0.54945 c -0.34658,-0.073 -0.629626,-0.3196 -0.749384,-0.65291 -0.0728,-0.20263 -0.07279,-0.46818 1.5e-5,-0.6707 0.123008,-0.34214 0.413888,-0.59158 0.76742,-0.65808 0.254537,-0.0478 0.530636,0.008 0.745247,0.1503 0.283127,0.188 0.450108,0.50009 0.450108,0.84125 0,0.27906 -0.09853,0.5174 -0.29505,0.71373 -0.149255,0.14912 -0.324203,0.24181 -0.529977,0.2808 -0.10193,0.0193 -0.285649,0.0173 -0.388379,-0.004 z m 1.944548,-2.26253 c 0.255174,-0.0948 0.318348,-0.41949 0.117726,-0.60505 -0.07423,-0.0686 -0.135913,-0.0918 -0.243389,-0.0913 -0.114253,4.9e-4 -0.172292,0.0237 -0.248774,0.0993 -0.03153,0.0312 -0.0669,0.0773 -0.07859,0.10255 -0.135702,0.2928 0.15168,0.60654 0.453027,0.49457 z"
       id="path1" /></g></svg>
