<?xml version="1.0" encoding="UTF-8" standalone="no"?>
<!-- Created with Inkscape (http://www.inkscape.org/) -->

<svg
   width="10mm"
   height="10.000197mm"
   viewBox="0 0 10 10.000197"
   version="1.1"
   id="svg1"
   xml:space="preserve"
   xmlns="http://www.w3.org/2000/svg"
   xmlns:svg="http://www.w3.org/2000/svg"><defs
     id="defs1" /><g
     id="layer1"
     transform="translate(18.546767,-261.78725)"><path
       style="fill:#f9f9f9;stroke-width:0.663537"
       d="m -13.761883,271.78383 c -0.740964,-0.039 -1.399916,-0.2108 -2.033479,-0.53012 -0.481859,-0.24286 -0.896742,-0.54368 -1.285868,-0.93235 -0.492626,-0.49204 -0.868822,-1.06561 -1.121645,-1.71013 -0.173618,-0.4426 -0.283167,-0.91148 -0.324216,-1.38765 -0.02993,-0.34717 -0.02588,-0.65275 0.0133,-1.00327 0.09781,-0.87505 0.430857,-1.71462 0.961784,-2.42451 0.319402,-0.42707 0.705028,-0.80063 1.14293,-1.10718 0.680821,-0.47661 1.474037,-0.77676 2.295404,-0.86857 0.347193,-0.0388 0.655005,-0.043 1.00013,-0.0135 0.931335,0.0795 1.814513,0.41693 2.56623,0.98049 0.200742,0.15049 0.344802,0.27602 0.534568,0.46579 0.278953,0.27896 0.5022149,0.55804 0.703602,0.87951 0.5928304,0.9463 0.8506345,2.05933 0.7356282,3.17594 -0.065708,0.63799 -0.2616352,1.27738 -0.5629523,1.83717 -0.395257,0.73432 -0.9638959,1.35777 -1.6547799,1.81429 -0.732727,0.48417 -1.554525,0.75998 -2.436445,0.81768 -0.148688,0.01 -0.411361,0.0129 -0.534195,0.007 z m -1.117247,-4.35177 v -1.77528 l -0.552109,-0.002 -0.552109,-0.002 v 1.77861 1.7786 l 0.552109,-0.002 0.552109,-0.002 z m 1.75573,0.81923 c 3.5e-5,-0.59286 0.0026,-0.98774 0.0066,-1.03375 0.03187,-0.36009 0.19861,-0.58337 0.485149,-0.64967 0.0788,-0.0183 0.279955,-0.0167 0.349669,0.003 0.251881,0.0699 0.387233,0.28076 0.415774,0.6478 0.0036,0.0459 0.0063,0.48898 0.0064,1.03626 l 1.48e-4,0.95604 h 0.547385 0.547385 l -0.002,-1.23943 -0.002,-1.23944 -0.01474,-0.0904 c -0.03034,-0.18596 -0.07997,-0.34273 -0.151773,-0.47948 -0.179869,-0.34257 -0.489336,-0.54786 -0.909052,-0.60305 -0.111636,-0.0147 -0.306243,-0.0147 -0.402867,-1.8e-4 -0.357613,0.054 -0.652184,0.23971 -0.864787,0.54525 -0.01006,0.0145 -0.01076,6.6e-4 -0.01108,-0.21752 l -3.41e-4,-0.23294 -0.529309,0.002 -0.529308,0.002 -0.0017,1.76876 c -9.29e-4,0.97281 -2.77e-4,1.77242 0.0014,1.7769 0.0025,0.007 0.114662,0.008 0.530977,0.008 h 0.527883 z m -2.152773,-3.07653 c 0.109233,-0.0277 0.202119,-0.0795 0.285412,-0.15924 0.136699,-0.13081 0.206239,-0.29339 0.206007,-0.48163 -3.6e-4,-0.29105 -0.19011,-0.54378 -0.473599,-0.63078 -0.0534,-0.0164 -0.06536,-0.0176 -0.177772,-0.0176 -0.112409,0 -0.124371,10e-4 -0.177771,0.0176 -0.178188,0.0547 -0.326422,0.17857 -0.406795,0.33996 -0.07516,0.15093 -0.08825,0.3448 -0.03412,0.50548 0.07957,0.2362 0.293452,0.41159 0.539692,0.44257 0.06478,0.008 0.170996,6.7e-4 0.238948,-0.0164 z"
       id="path2" /></g></svg>
