<?xml version="1.0" encoding="UTF-8" standalone="no"?>
<!-- Created with Inkscape (http://www.inkscape.org/) -->

<svg
   width="200mm"
   height="200mm"
   viewBox="0 0 200 200"
   version="1.1"
   id="svg1"
   xml:space="preserve"
   sodipodi:docname="resoluts_symbolo_dark.svg"
   inkscape:version="1.3.2 (091e20ef0f, 2023-11-25, custom)"
   xmlns:inkscape="http://www.inkscape.org/namespaces/inkscape"
   xmlns:sodipodi="http://sodipodi.sourceforge.net/DTD/sodipodi-0.dtd"
   xmlns="http://www.w3.org/2000/svg"
   xmlns:svg="http://www.w3.org/2000/svg"
   xmlns:rdf="http://www.w3.org/1999/02/22-rdf-syntax-ns#"
   xmlns:cc="http://creativecommons.org/ns#"
   xmlns:dc="http://purl.org/dc/elements/1.1/"><sodipodi:namedview
     id="namedview1"
     pagecolor="#ffffff"
     bordercolor="#000000"
     borderopacity="0.25"
     inkscape:showpageshadow="2"
     inkscape:pageopacity="0.0"
     inkscape:pagecheckerboard="0"
     inkscape:deskcolor="#d1d1d1"
     inkscape:document-units="mm"
     inkscape:zoom="0.8334375"
     inkscape:cx="377.95276"
     inkscape:cy="377.35283"
     inkscape:window-width="1920"
     inkscape:window-height="1011"
     inkscape:window-x="0"
     inkscape:window-y="32"
     inkscape:window-maximized="1"
     inkscape:current-layer="svg1" /><defs
     id="defs1" /><g
     id="layer1"
     transform="translate(-19.999762,-63.500023)"
     style="display:inline"><rect
       style="display:none;fill:#f9f9f9;fill-opacity:1;stroke-width:0.59301"
       id="rect111"
       width="200"
       height="250"
       x="19.999762"
       y="63.500023" /><g
       id="g121"
       transform="translate(0,1.4583364)"
       style="display:none"><path
         id="path65"
         style="fill:#1a1a1a;fill-opacity:1;stroke-width:0.987264"
         d="m 108.52843,103.88543 c -0.39313,0.0174 -0.31984,0.1554 0.21734,0.62702 4.23871,3.72098 6.04599,7.11684 5.85383,8.5634 -0.0877,0.66025 -8.61376,-10.54746 -17.910467,1.00914 l -0.263254,0.36937 0.828536,8.9e-4 c 2.965245,0.006 9.615745,0.55391 6.869105,4.00798 -0.2808,0.35313 -3.09088,5.80342 -3.83658,7.43284 -0.433762,0.94777 -0.98827,2.28444 -1.232092,2.97029 -0.439391,1.23589 -0.443425,1.26773 -0.448448,3.62281 -0.0062,2.24812 -0.02471,2.4325 -0.369885,3.42076 -0.570973,1.63495 -1.323877,3.34826 -2.790185,6.3482 -1.410738,2.88625 -2.202827,4.1202 -4.258492,6.6334 -1.438548,1.75872 -1.678632,2.29446 -1.578504,3.5233 0.08688,1.06581 0.46655,2.28693 1.499935,4.82633 1.019605,2.50556 1.812604,4.08746 2.335616,4.65848 0.417276,0.45554 0.501795,0.48977 1.201989,0.48977 0.414174,0 1.534669,-0.18224 2.4902,-0.40508 2.167801,-0.50556 3.394346,-0.60974 4.568196,-0.38826 0.49522,0.0934 1.05454,0.13115 1.24331,0.0837 0.59027,-0.14814 1.22318,-0.836 1.80706,-1.96472 1.92551,-3.7223 3.17579,-4.64261 6.75839,-4.97529 2.24412,-0.20839 4.08588,-0.93672 6.04004,-2.38816 0.98421,-0.73102 2.05814,-1.8019 2.57591,-2.56876 l 0.35662,-0.52804 -0.0958,0.59384 c -0.14496,0.8996 -0.54493,2.10626 -0.99996,3.22794 0.11233,-0.19969 0.22288,-0.40106 0.33163,-0.60407 -1.58039,3.49506 -4.17825,7.05693 -8.08894,11.12198 -9.70781,10.09096 -13.058775,14.90155 -14.56623,20.91237 -0.44625,1.77937 -0.98332,6.25179 -0.788743,6.56809 0.06217,0.10106 -0.336768,0.30495 -0.886696,0.45303 -1.813194,0.48825 -2.936564,2.11501 -2.929976,4.2437 0.0053,1.7264 0.806012,3.22929 2.081544,3.908 0.868575,0.46218 2.08621,0.48456 26.643761,0.48416 23.98327,-3.8e-4 25.79422,-0.0315 26.62897,-0.45712 1.42983,-0.7291 1.94912,-1.65802 2.04889,-3.66516 0.15635,-3.1452 -1.06288,-4.45878 -4.20186,-4.52684 -0.96042,-0.0208 -1.74636,-0.15005 -1.74636,-0.28723 0,-0.13717 1.05316,-2.34238 2.34021,-4.90031 3.49987,-6.95568 5.02102,-10.89081 6.7742,-17.52118 0.922,-3.48694 2.01677,-9.43949 2.26419,-12.31224 l 0.17296,-2.00705 -2.30755,-1.15963 c -2.58125,-1.29705 -2.59654,-1.26824 0.87802,-1.63004 l 1.63257,-0.16989 v -1.40147 c 0,-0.77092 -0.13333,-2.57494 -0.29642,-4.00902 l -0.29641,-2.60753 -1.20556,-0.25816 c -0.66301,-0.14195 -1.82267,-0.33997 -2.57693,-0.43977 -0.75425,-0.0998 -1.37136,-0.26701 -1.37136,-0.37193 0,-0.10491 0.96976,-0.59528 2.155,-1.08975 l 2.15502,-0.89945 -0.0617,-0.99996 c -0.0338,-0.55015 -0.56297,-2.48371 -1.17596,-4.29675 l -1.11425,-3.2963 -2.54632,0.0954 c -1.40047,0.0526 -2.54632,0.036 -2.54632,-0.0372 0,-0.0732 0.82283,-0.69547 1.82851,-1.38261 1.00565,-0.68713 1.82848,-1.30703 1.82848,-1.37748 0,-0.0705 -0.42379,-0.90212 -0.9418,-1.84789 -1.40878,-2.57216 -3.20441,-4.98469 -3.708,-4.98243 -0.24416,8.8e-4 -1.19786,0.23101 -2.11929,0.51119 -0.92144,0.28019 -1.77079,0.4503 -1.88768,0.37805 -0.11689,-0.0723 0.42707,-0.80174 1.20913,-1.62136 l 1.04689,-1.45606 -1.49279,-1.53259 c -0.82123,-0.84293 -2.49885,-2.10932 -3.54985,-2.95445 -2.15231,-1.73072 -1.6287,-1.76906 -3.71361,0.10764 -0.71393,0.64261 -1.20296,1.00205 -1.26424,0.94077 -0.0612,-0.0613 0.15118,-0.94285 0.47192,-1.95909 0.32074,-1.01625 0.52095,-1.48619 0.4454,-1.68309 -0.27763,-0.72346 -6.60465,-4.51294 -10.08683,-5.55537 -0.88277,-0.26426 -0.60175,-0.0336 -0.42396,0.81119 0.48838,2.32051 0.69217,5.98508 0.58621,6.09106 -0.0653,0.0653 -0.51896,-0.5938 -1.11833,-1.38667 -2.28245,-3.01935 -3.83481,-5.23044 -6.02831,-6.72675 -2.02537,-1.38162 -4.5976,-2.15378 -8.79503,-2.38919 -0.23487,-0.0132 -0.4174,-0.0206 -0.54845,-0.0149 z m -0.34742,27.88145 h 0.59384 l -0.65966,0.30967 c -0.84086,0.39496 -1.06973,0.66944 -1.16117,1.3923 -0.0405,0.32043 -0.1881,0.73613 -0.32806,0.92393 -0.73126,0.98116 -2.69561,1.45219 -4.19624,1.00608 v 5.2e-4 c -0.35806,-0.10649 -0.8591,-0.37143 -1.11322,-0.58875 l -0.46224,-0.39541 0.59437,-0.007 c 0.68782,-0.009 1.61718,-0.40796 2.77744,-1.19586 1.35354,-0.91918 2.79238,-1.44531 3.95494,-1.44585 z m 18.75735,1.50197 c 0.15874,-0.0201 1.55923,3.6551 2.11929,5.60794 1.33231,4.64524 1.84276,8.96624 1.58922,13.45197 -0.14954,2.6459 -1.02676,7.19194 -1.87135,9.69754 -1.43238,4.24963 -2.99234,7.6028 -5.65078,12.14948 -1.59821,2.73341 -2.25769,3.63546 -1.17647,1.60911 l 5.1e-4,5.1e-4 c 1.55113,-2.90697 3.47915,-7.62717 4.53092,-11.09239 0.83536,-2.75213 1.74331,-7.29557 1.95911,-9.80416 0.42111,-4.89103 -0.12701,-9.03657 -1.64942,-12.47805 l -0.71478,-1.61727 0.42091,-2.52438 c 0.36958,-2.21308 0.47427,-3.41555 0.42856,-4.9457 -8.8e-4,-0.0357 0.003,-0.0517 0.0143,-0.0545 z m 16.19472,69.76896 -22.13782,0.002 -22.137853,0.002 -0.05252,1.16169 c -0.09883,2.19445 -0.901977,3.12518 -4.190635,4.85439 -1.184498,0.62282 -2.470224,1.46251 -2.85702,1.86624 l -0.703541,0.73415 h 29.736999 29.7375 l -0.48774,-0.53875 c -0.26808,-0.29623 -1.49954,-1.06153 -2.7366,-1.70044 -3.21583,-1.66091 -4.17075,-2.89173 -4.17075,-5.37528 z m -22.07253,11.62399 c -33.675564,0 -33.697178,1.5e-4 -34.741381,0.5459 -0.643685,0.33641 -1.339791,1.02133 -1.813189,1.78359 -0.685065,1.1031 -0.769315,1.46862 -0.773946,3.37179 -0.0037,1.53527 0.122587,12.95687 0.448961,13.56739 l 0.453552,0.84894 h 36.295913 36.29589 l 0.46324,-0.7071 c 0.35795,-0.5463 0.46325,-11.83197 0.46325,-13.67504 0,-2.20392 -0.0572,-2.46693 -0.75456,-3.47333 -0.41505,-0.59892 -1.1791,-1.35332 -1.69788,-1.67594 l -0.94333,-0.5862 z" /><g
         id="g111"
         transform="translate(-22.041828,13.000753)"><path
           d="m 142.04125,64.052722 v 4.999695 a 80,80 0 0 1 80.00029,80.000283 80,80 0 0 1 -80.00029,79.99977 v 5.00021 c 46.94434,2.8e-4 85.00049,-38.05564 85.0005,-84.99998 -1e-5,-46.94435 -38.05616,-85.000254 -85.0005,-84.999978 z"
           style="fill:#003459;stroke-width:0.255767"
           id="path2" /><path
           d="M 142.04125,69.052417 A 80,80 0 0 0 62.041481,149.0527 80,80 0 0 0 142.04125,229.05247 v -4.9997 c -12.2361,-7e-5 -23.7765,-2.94919 -33.98036,-8.14627 a 75,75 0 0 1 -0.1359,-0.0693 c -3.43642,-1.75909 -6.7188,-3.77191 -9.822661,-6.0203 a 75,75 0 0 1 -0.243913,-0.17312 c -6.280885,-4.58791 -11.818707,-10.12588 -16.40675,-16.4067 a 75,75 0 0 1 -0.176734,-0.24805 c -2.247455,-3.10294 -4.259244,-6.3848 -6.01772,-9.82007 a 75,75 0 0 1 -0.06925,-0.13591 c -5.197013,-10.2039 -8.146286,-21.74425 -8.146273,-33.98035 -1.1e-5,-12.23561 2.949141,-23.77574 8.145756,-33.97932 a 75,75 0 0 1 0.0708,-0.1385 c 1.757887,-3.43393 3.768637,-6.71459 6.015137,-9.81645 a 75,75 0 0 1 0.179834,-0.2527 C 86.040051,98.587082 91.576174,93.051032 97.854799,88.464152 a 75,75 0 0 1 0.252697,-0.17983 c 3.102284,-2.24684 6.383044,-4.25809 9.817484,-6.016174 a 75,75 0 0 1 0.13591,-0.06925 c 10.20386,-5.197084 21.74426,-8.1462 33.98036,-8.146273 z"
           style="fill:#00a7e1;stroke-width:0.240722"
           id="path5" /><path
           id="path57"
           style="fill:#003459;stroke-width:0.255767"
           d="m 142.04109,74.02919 a 75,75 0 0 0 -33.98036,8.146273 c -0.0453,0.02308 -0.0907,0.04608 -0.1359,0.06925 a 75,75 0 0 0 -9.817494,6.016169 c -0.08372,0.0606 -0.169239,0.11886 -0.252697,0.17983 A 75,75 0 0 0 81.453056,104.84229 c -0.06097,0.0835 -0.119201,0.16898 -0.179834,0.2527 a 75,75 0 0 0 -6.015137,9.81646 c -0.02363,0.0462 -0.04726,0.0923 -0.0708,0.13849 a 75,75 0 0 0 -8.145756,33.97932 75,75 0 0 0 8.146273,33.98035 c 0.02308,0.0453 0.04608,0.0907 0.06925,0.13591 a 75,75 0 0 0 6.01772,9.82008 c 0.05954,0.0822 0.116872,0.16609 0.176734,0.24804 a 75,75 0 0 0 16.40675,16.40675 c 0.08049,0.0588 0.163182,0.11464 0.243913,0.17312 a 75,75 0 0 0 9.822661,6.0203 c 0.0453,0.0232 0.0906,0.0461 0.1359,0.0692 a 75,75 0 0 0 33.98036,8.14627 v -5.00021 c -0.11474,-0.007 -0.22946,-0.0148 -0.34416,-0.0227 0.004,-2.1e-4 0.009,-8.4e-4 0.0129,-0.001 a 70,70 0 0 1 -5.50096,-0.39326 l -10e-4,0.0346 c -0.32331,-0.027 -0.64077,-0.0725 -0.96274,-0.10387 a 70,70 0 0 1 -5.63634,-0.76378 c -1.52998,-0.27468 -3.03524,-0.61363 -4.52738,-0.98495 a 70,70 0 0 1 -4.90564,-1.40044 c -1.65548,-0.5433 -3.2764,-1.15754 -4.87309,-1.81746 a 70,70 0 0 1 -4.15737,-1.865 c -1.6945,-0.83403 -3.34314,-1.74294 -4.95525,-2.70578 a 70,70 0 0 1 -3.50728,-2.22208 c -1.71201,-1.1657 -3.366459,-2.40742 -4.963524,-3.71554 a 70,70 0 0 1 -2.796728,-2.41484 c -1.599611,-1.45729 -3.128284,-2.98849 -4.585767,-4.58576 A 70,70 0 0 1 88.1617,193.564 c -1.465881,-1.76703 -2.840685,-3.60961 -4.128947,-5.51543 a 70,70 0 0 1 -1.471744,-2.26032 c -1.353745,-2.17886 -2.583513,-4.43999 -3.695382,-6.76755 a 70,70 0 0 1 -0.781865,-1.6738 c -1.163052,-2.61034 -2.168116,-5.30399 -3.009118,-8.06772 a 70,70 0 0 1 -0.302307,-1.01183 c -0.847026,-2.94334 -1.511109,-5.96166 -1.968356,-9.04544 a 70,70 0 0 1 -0.07131,-0.52607 c -0.444498,-3.16298 -0.684919,-6.38887 -0.691431,-9.66659 0.0029,-3.28974 0.247024,-6.53251 0.695048,-9.71827 a 70,70 0 0 1 0.07906,-0.52658 c 0.46225,-3.11449 1.128194,-6.16985 1.990576,-9.14983 a 70,70 0 0 1 0.155546,-0.55294 c 0.896004,-3.00338 1.989141,-5.9277 3.266468,-8.75812 a 70,70 0 0 1 0.396358,-0.84336 c 1.239546,-2.65185 2.640733,-5.21684 4.194576,-7.68274 a 70,70 0 0 1 0.650606,-1.03508 c 1.611107,-2.46066 3.375633,-4.81658 5.281332,-7.05486 a 70,70 0 0 1 0.984436,-1.11518 c 1.825901,-2.05471 3.773391,-4.002208 5.834269,-5.833748 a 70,70 0 0 1 1.176672,-1.03973 c 2.178719,-1.85047 4.476443,-3.57235 6.883303,-5.15266 a 70,70 0 0 1 1.38906,-0.87333 c 2.26333,-1.41108 4.61725,-2.69833 7.05538,-3.85248 a 70,70 0 0 1 1.64538,-0.767905 c 2.43643,-1.076583 4.95759,-2.010202 7.54424,-2.813265 a 70,70 0 0 1 2.23812,-0.651123 c 0.48368,-0.132796 0.96274,-0.275495 1.45107,-0.398425 -0.0102,0.0313 -0.0193,0.05762 -0.0295,0.08888 a 70,70 0 0 1 2.00505,-0.436149 c -0.0263,-0.0095 -0.0507,-0.02106 -0.077,-0.03049 1.06632,-0.247003 2.14019,-0.456118 3.21583,-0.652673 a 70,70 0 0 1 3.50779,-0.54467 c 2.80623,-0.366903 5.63196,-0.581078 8.46615,-0.605648 z" /><path
           d="m 142.04125,74.02919 v 4.999695 c 1.25186,-7e-6 2.49534,0.03587 3.73104,0.100769 a 69.999999,69.999999 0 0 1 0.58653,0.04444 c 1.06635,0.06494 2.12775,0.147258 3.18068,0.259416 a 69.999999,69.999999 0 0 1 0.42582,0.05426 c 1.11472,0.125661 2.22197,0.274776 3.32021,0.452169 a 69.999999,69.999999 0 0 1 0.33486,0.05943 c 1.14433,0.190576 2.27909,0.408326 3.40393,0.653707 a 69.999999,69.999999 0 0 1 0.20567,0.04754 c 1.16777,0.258467 2.32399,0.545968 3.46904,0.861963 a 69.999999,69.999999 0 0 1 0.17776,0.05064 c 1.15726,0.322683 2.30165,0.674369 3.4339,1.054199 a 69.999999,69.999999 0 0 1 0.17002,0.05788 c 1.14334,0.386845 2.27295,0.80143 3.38894,1.244886 a 69.999999,69.999999 0 0 1 0.14314,0.05633 c 1.13997,0.455904 2.26552,0.938902 3.37499,1.452108 a 69.999999,69.999999 0 0 1 0.0687,0.03101 c 4.55236,2.11176 8.8427,4.68947 12.80129,7.68738 a 69.999999,69.999999 0 0 1 0.70486,0.55397 c 0.69708,0.54204 1.38777,1.09135 2.06344,1.65882 a 69.999999,69.999999 0 0 1 1.00304,0.8692 c 0.56423,0.4923 1.12367,0.98923 1.67173,1.49913 a 69.999999,69.999999 0 0 1 1.05885,1.01027 c 0.5175,0.50191 1.02726,1.01103 1.52911,1.528588 a 69.999999,69.999999 0 0 1 0.99684,1.04594 c 0.51325,0.55151 1.01351,1.11418 1.50895,1.68206 a 69.999999,69.999999 0 0 1 0.86661,1.00046 c 0.56084,0.6678 1.10369,1.35044 1.6397,2.03915 a 69.999999,69.999999 0 0 1 0.57826,0.73536 c 2.9947,3.95542 5.57002,8.24232 7.68015,12.79043 a 69.999999,69.999999 0 0 1 0.0357,0.0796 c 0.51204,1.10725 0.99405,2.23014 1.44901,3.36776 a 69.999999,69.999999 0 0 1 0.0563,0.14314 c 0.44461,1.11889 0.8608,2.25134 1.2485,3.39773 a 69.999999,69.999999 0 0 1 0.0512,0.15192 c 0.38279,1.14054 0.73716,2.29332 1.06195,3.45921 a 69.999999,69.999999 0 0 1 0.0434,0.15298 c 0.31696,1.14794 0.60541,2.30702 0.86455,3.47782 a 69.999999,69.999999 0 0 1 0.0475,0.20567 c 0.24745,1.13434 0.46716,2.27871 0.65887,3.43287 a 69.999999,69.999999 0 0 1 0.0532,0.29559 c 0.17877,1.10573 0.32894,2.2205 0.45527,3.34295 a 69.999999,69.999999 0 0 1 0.0522,0.41237 c 0.11221,1.05327 0.19446,2.11502 0.25942,3.18172 a 69.999999,69.999999 0 0 1 0.0444,0.58653 c 0.0649,1.2357 0.10078,2.47917 0.10077,3.73104 -2e-5,11.41941 -2.75179,22.18975 -7.6016,31.71279 a 69.999999,69.999999 0 0 1 -0.0677,0.13178 c -1.64096,3.2053 -3.51808,6.26745 -5.61516,9.16274 a 69.999999,69.999999 0 0 1 -0.16485,0.23203 c -4.2812,5.86062 -9.44869,11.02772 -15.30914,15.30914 a 69.999999,69.999999 0 0 1 -0.23668,0.16847 c -2.89516,2.09678 -5.95713,3.97341 -9.16223,5.61413 a 69.999999,69.999999 0 0 1 -0.12919,0.0667 c -9.52328,4.85001 -20.29407,7.60218 -31.71383,7.60212 v 5.00021 a 75,75 0 0 0 73.36141,-59.40671 75,75 0 0 0 1.22784,-7.75405 75,75 0 0 0 0.41082,-7.83931 75,75 0 0 0 -24.81502,-55.736138 75,75 0 0 0 -6.10092,-4.94026 75,75 0 0 0 -13.5785,-7.839835 75,75 0 0 0 -7.32927,-2.813265 75,75 0 0 0 -23.17636,-3.670577 z"
           style="fill:#00a7e1;stroke-width:0.225678"
           id="path6" /><path
           d="m 99.276111,76.308004 a 85,85 0 0 0 -84.99998,84.999976 85,85 0 0 0 84.99998,84.99998 v -5.00021 A 80,80 0 0 1 19.276343,161.30798 80,80 0 0 1 99.276111,81.307699 Z"
           style="fill:#007ea7;fill-opacity:1;stroke-width:0.255767"
           id="path31"
           transform="translate(42.765297,-12.278817)" /><path
           d="m 99.276111,81.307699 v 5.000211 a 75,75 0 0 1 75.000069,75.00007 75,75 0 0 1 -75.000069,75.00008 v 4.99969 A 80,80 0 0 0 179.2764,161.30798 80,80 0 0 0 99.276111,81.307699 Z"
           style="fill:#007ea7;fill-opacity:1;stroke-width:0.240722"
           id="path32"
           transform="translate(42.765297,-12.278817)" /></g></g></g><g
     id="g120"
     transform="translate(-19.999762,-63.500023)"
     style="display:inline"><rect
       style="fill:#003459;fill-opacity:1;stroke-width:0.530404"
       id="rect112"
       width="200"
       height="200"
       x="19.999762"
       y="63.500023"
       ry="100" /><g
       id="g5"
       transform="matrix(0.99987514,0,0,0.99998556,0.39674987,0.00365645)"><ellipse
         style="fill:none;fill-opacity:1;stroke:#ffffff;stroke-width:13.3762;stroke-dasharray:13.3762;stroke-dashoffset:0;stroke-opacity:1"
         id="ellipse3"
         cx="150.84795"
         cy="135.12787"
         rx="93.311768"
         ry="93.517967"
         transform="matrix(0.97822143,0.20756406,-0.20680232,0.97838275,0,0)" /><path
         id="circle2"
         style="fill:#f9f9f9;stroke-width:0.371313"
         d="m 105.83095,110.55786 c -0.4418,0.0197 -0.3597,0.1764 0.24395,0.71029 4.7631,4.21261 6.79403,8.05713 6.57811,9.69481 -0.0987,0.74749 -9.67931,-11.94125 -20.126194,1.14214 l -0.295747,0.41805 0.930898,0.001 c 3.332132,0.007 10.805763,0.62741 7.719283,4.53781 -0.31553,0.39979 -3.473395,6.56967 -4.311355,8.41438 -0.487461,1.07296 -1.110509,2.58648 -1.384497,3.36295 -0.493767,1.39917 -0.49851,1.43538 -0.504148,4.10161 -0.0066,2.54511 -0.02754,2.75394 -0.415546,3.87276 -0.641621,1.85093 -1.487533,3.79042 -3.135253,7.18669 -1.58527,3.26759 -2.475575,4.66458 -4.785565,7.5098 -1.616529,1.9911 -1.886356,2.59728 -1.77384,3.98844 0.09768,1.20661 0.524007,2.58948 1.685241,5.46438 1.145758,2.8366 2.03717,4.62741 2.624886,5.27389 0.4689,0.51573 0.563999,0.55444 1.350814,0.55444 0.465424,0 1.72459,-0.20659 2.798338,-0.45888 2.436029,-0.57238 3.814005,-0.69013 5.133097,-0.4394 0.556484,0.10582 1.184846,0.14864 1.397005,0.0952 0.663273,-0.16774 1.374743,-0.94679 2.030873,-2.22463 2.16376,-4.21408 3.56868,-5.25558 7.59452,-5.63222 2.52177,-0.23591 4.5912,-1.06037 6.78712,-2.70358 1.10602,-0.82761 2.31323,-2.04032 2.89506,-2.90848 l 0.40058,-0.59782 -0.10785,0.67261 c -0.16289,1.01846 -0.61236,2.38416 -1.12371,3.65402 0.12632,-0.22608 0.25092,-0.45405 0.37315,-0.68391 -1.77592,3.95681 -4.69558,7.98926 -9.0901,12.59137 -10.908871,11.42414 -14.674287,16.87042 -16.368243,23.67537 -0.501456,2.01443 -1.105253,7.07817 -0.886607,7.43626 0.0699,0.11428 -0.378463,0.34467 -0.996426,0.51229 -2.037532,0.55277 -3.299895,2.39443 -3.292491,4.80433 0.0062,1.95449 0.905774,3.65632 2.339124,4.42468 0.976036,0.52324 2.344808,0.54859 29.940673,0.54814 26.9505,-4.2e-4 28.98517,-0.0352 29.92319,-0.51736 1.60673,-0.82539 2.19021,-1.87701 2.30231,-4.14932 0.17568,-3.56074 -1.19395,-5.04787 -4.72127,-5.12493 -1.07927,-0.0237 -1.9629,-0.17031 -1.9629,-0.32563 0,-0.15526 1.18359,-2.65145 2.62986,-5.54732 3.93287,-7.87465 5.64253,-12.33018 7.6126,-19.83653 1.03607,-3.94764 2.26639,-10.68616 2.54439,-13.93844 l 0.19407,-2.27238 -2.59307,-1.31313 c -2.90061,-1.46845 -2.91737,-1.43533 0.98705,-1.84492 l 1.83436,-0.19234 v -1.58657 c 0,-0.87279 -0.1499,-2.91555 -0.33317,-4.53909 l -0.33318,-2.95188 -1.35456,-0.29229 c -0.74506,-0.1607 -2.04808,-0.38487 -2.89567,-0.49784 -0.8476,-0.11322 -1.54111,-0.30238 -1.54111,-0.42115 0,-0.11878 1.08961,-0.67418 2.42146,-1.23395 l 2.42151,-1.01769 -0.0692,-1.13211 c -0.0379,-0.62286 -0.63268,-2.81211 -1.32151,-4.86465 l -1.25158,-3.73198 -2.86139,0.10817 c -1.57374,0.0591 -2.86135,0.0408 -2.86135,-0.0419 0,-0.0829 0.92452,-0.78728 2.05463,-1.56522 1.13005,-0.77787 2.05461,-1.47979 2.05461,-1.55954 0,-0.0796 -0.47611,-1.02125 -1.05821,-2.09192 -1.58308,-2.91201 -3.60134,-5.6436 -4.16726,-5.64104 -0.27435,9.9e-4 -1.34549,0.26174 -2.38092,0.57897 -1.03544,0.31719 -1.99002,0.50983 -2.12136,0.42805 -0.13133,-0.082 0.47946,-0.90762 1.35828,-1.8355 l 1.17675,-1.6488 -1.67774,-1.7349 c -0.92285,-0.95433 -2.80779,-2.38797 -3.98884,-3.34477 -2.41858,-1.95938 -1.82999,-2.00267 -4.17283,0.12196 -0.80227,0.7275 -1.35184,1.13423 -1.4207,1.06482 -0.0688,-0.0691 0.16991,-1.06717 0.53034,-2.21768 0.36041,-1.15049 0.5853,-1.68233 0.50039,-1.90524 -0.31196,-0.81908 -7.42198,-5.10959 -11.33499,-6.28971 -0.99197,-0.2992 -0.67585,-0.0379 -0.47606,0.91837 0.54881,2.62707 0.77732,6.77567 0.65826,6.89567 -0.0733,0.0738 -0.5831,-0.672 -1.25662,-1.56959 -2.56485,-3.41827 -4.30915,-5.92145 -6.77401,-7.61541 -2.27598,-1.5642 -5.16639,-2.43837 -9.88313,-2.70487 -0.26392,-0.0149 -0.46916,-0.0234 -0.61644,-0.017 z m -0.3906,31.56423 v 0.001 h 0.66759 l -0.74124,0.35074 c -0.94485,0.44713 -1.20252,0.75752 -1.30525,1.57588 -0.0454,0.36276 -0.21147,0.83337 -0.36876,1.04599 -0.82172,1.11079 -3.02876,1.64405 -4.715053,1.139 v 6.2e-4 c -0.402364,-0.12076 -0.965399,-0.42026 -1.250957,-0.66629 l -0.519767,-0.44754 0.668237,-0.007 c 0.772936,-0.009 1.817126,-0.46199 3.12093,-1.35401 1.52098,-1.04061 3.13787,-1.63622 4.44427,-1.63683 z m 21.07831,1.7016 c 0.17841,-0.0224 1.75222,4.13795 2.38158,6.34878 1.49714,5.25896 2.07058,10.15059 1.78569,15.22895 -0.16805,2.99546 -1.15357,8.14237 -2.10265,10.97904 -1.60962,4.81103 -3.36305,8.60752 -6.35041,13.75487 -1.79593,3.09454 -2.53709,4.11574 -1.32212,1.82164 l 6.5e-4,6.5e-4 c 1.74302,-3.29102 3.91001,-8.63499 5.0919,-12.55804 0.93873,-3.11572 1.95876,-8.25969 2.20122,-11.09969 0.47323,-5.53723 -0.1429,-10.23024 -1.85369,-14.1264 l -0.803,-1.83108 0.47294,-2.8576 c 0.41532,-2.50549 0.53305,-3.8672 0.48168,-5.59954 -10e-4,-0.0402 0.006,-0.058 0.0163,-0.0614 z m 18.19828,78.98657 -24.87683,0.002 -24.876849,0.002 -0.05928,1.31502 c -0.111052,2.48436 -1.013276,3.53812 -4.708811,5.49576 -1.331047,0.70513 -2.776115,1.65565 -3.210759,2.11273 l -0.790525,0.831 h 33.416594 33.41662 l -0.54845,-0.60972 c -0.30121,-0.33538 -1.68465,-1.20208 -3.07474,-1.92538 -3.61369,-1.88036 -4.68697,-3.27375 -4.68697,-6.08542 z m -24.80321,13.15965 c -37.841971,0 -37.866718,2e-5 -39.040113,0.6179 -0.723318,0.38085 -1.505167,1.1567 -2.037143,2.01965 -0.769812,1.24883 -0.864543,1.6622 -0.86976,3.81684 -0.0013,0.46682 0.03906,2.70897 0.06054,4.33666 a 79.897043,80.493889 0 0 0 41.753586,11.9848 79.897043,80.493889 0 0 0 41.75732,-11.9873 c 0.0186,-1.57786 0.0567,-3.75475 0.0567,-4.29518 0,-2.49511 -0.0643,-2.79313 -0.84789,-3.93251 -0.4664,-0.67805 -1.32506,-1.53184 -1.90799,-1.89708 l -1.06006,-0.66378 z" /><ellipse
         style="fill:none;fill-opacity:1;stroke:#00a7e1;stroke-width:12.5925;stroke-dasharray:12.5925;stroke-dashoffset:0;stroke-opacity:1"
         id="ellipse5"
         cx="161.24104"
         cy="122.4459"
         rx="87.857819"
         ry="88.024231"
         transform="matrix(0.95817908,0.28616927,-0.28486786,0.9585668,0,0)" /></g></g><metadata
     id="metadata1"><rdf:RDF><cc:Work
         rdf:about=""><dc:description>Fontes:
Cantarell Bold
Strasua
</dc:description></cc:Work></rdf:RDF></metadata></svg>
