<?xml version="1.0" encoding="UTF-8" standalone="no"?>
<!-- Created with Inkscape (http://www.inkscape.org/) -->

<svg
   width="200mm"
   height="200mm"
   viewBox="0 0 200 200"
   version="1.1"
   id="svg1"
   xml:space="preserve"
   xmlns="http://www.w3.org/2000/svg"
   xmlns:svg="http://www.w3.org/2000/svg"
   xmlns:rdf="http://www.w3.org/1999/02/22-rdf-syntax-ns#"
   xmlns:cc="http://creativecommons.org/ns#"
   xmlns:dc="http://purl.org/dc/elements/1.1/"><defs
     id="defs1" /><g
     id="layer1"
     transform="translate(-19.999761,-63.500022)"
     style="display:inline"><rect
       style="display:none;fill:#f9f9f9;fill-opacity:1;stroke-width:0.59301"
       id="rect111"
       width="200"
       height="250"
       x="19.999762"
       y="63.500023" /><text
       xml:space="preserve"
       style="font-style:normal;font-variant:normal;font-weight:normal;font-stretch:normal;font-size:11.2889px;font-family:Pirulen;-inkscape-font-specification:Pirulen;text-align:center;letter-spacing:1.2843px;text-anchor:middle;display:none;fill:#007ea7;fill-opacity:1;stroke-width:0.321075"
       x="120.83965"
       y="296.85666"
       id="text1"><tspan
         id="tspan1"
         style="font-style:normal;font-variant:normal;font-weight:normal;font-stretch:normal;font-size:11.2889px;font-family:Pirulen;-inkscape-font-specification:Pirulen;letter-spacing:1.2843px;fill:#007ea7;fill-opacity:1;stroke-width:0.321075"
         x="0"
         y="0">software</tspan></text><text
       xml:space="preserve"
       style="font-size:28.2222px;letter-spacing:0px;display:none;fill:#003459;fill-opacity:1;stroke-width:0.354602"
       x="121.2853"
       y="282.44839"
       id="text36"><tspan
         id="tspan36"
         style="font-style:italic;font-variant:normal;font-weight:900;font-stretch:normal;font-size:28.2222px;font-family:'Source Code Pro';-inkscape-font-specification:'Source Code Pro Heavy Italic';text-align:center;letter-spacing:0px;text-anchor:middle;fill:#003459;fill-opacity:1;stroke-width:0.354602"
         x="0"
         y="0">RESOLUTS</tspan></text><g
       id="g121"
       transform="translate(0,1.4583364)"
       style="display:none"><path
         id="path65"
         style="fill:#1a1a1a;fill-opacity:1;stroke-width:0.987264"
         d="m 108.52843,103.88543 c -0.39313,0.0174 -0.31984,0.1554 0.21734,0.62702 4.23871,3.72098 6.04599,7.11684 5.85383,8.5634 -0.0877,0.66025 -8.61376,-10.54746 -17.910467,1.00914 l -0.263254,0.36937 0.828536,8.9e-4 c 2.965245,0.006 9.615745,0.55391 6.869105,4.00798 -0.2808,0.35313 -3.09088,5.80342 -3.83658,7.43284 -0.433762,0.94777 -0.98827,2.28444 -1.232092,2.97029 -0.439391,1.23589 -0.443425,1.26773 -0.448448,3.62281 -0.0062,2.24812 -0.02471,2.4325 -0.369885,3.42076 -0.570973,1.63495 -1.323877,3.34826 -2.790185,6.3482 -1.410738,2.88625 -2.202827,4.1202 -4.258492,6.6334 -1.438548,1.75872 -1.678632,2.29446 -1.578504,3.5233 0.08688,1.06581 0.46655,2.28693 1.499935,4.82633 1.019605,2.50556 1.812604,4.08746 2.335616,4.65848 0.417276,0.45554 0.501795,0.48977 1.201989,0.48977 0.414174,0 1.534669,-0.18224 2.4902,-0.40508 2.167801,-0.50556 3.394346,-0.60974 4.568196,-0.38826 0.49522,0.0934 1.05454,0.13115 1.24331,0.0837 0.59027,-0.14814 1.22318,-0.836 1.80706,-1.96472 1.92551,-3.7223 3.17579,-4.64261 6.75839,-4.97529 2.24412,-0.20839 4.08588,-0.93672 6.04004,-2.38816 0.98421,-0.73102 2.05814,-1.8019 2.57591,-2.56876 l 0.35662,-0.52804 -0.0958,0.59384 c -0.14496,0.8996 -0.54493,2.10626 -0.99996,3.22794 0.11233,-0.19969 0.22288,-0.40106 0.33163,-0.60407 -1.58039,3.49506 -4.17825,7.05693 -8.08894,11.12198 -9.70781,10.09096 -13.058775,14.90155 -14.56623,20.91237 -0.44625,1.77937 -0.98332,6.25179 -0.788743,6.56809 0.06217,0.10106 -0.336768,0.30495 -0.886696,0.45303 -1.813194,0.48825 -2.936564,2.11501 -2.929976,4.2437 0.0053,1.7264 0.806012,3.22929 2.081544,3.908 0.868575,0.46218 2.08621,0.48456 26.643761,0.48416 23.98327,-3.8e-4 25.79422,-0.0315 26.62897,-0.45712 1.42983,-0.7291 1.94912,-1.65802 2.04889,-3.66516 0.15635,-3.1452 -1.06288,-4.45878 -4.20186,-4.52684 -0.96042,-0.0208 -1.74636,-0.15005 -1.74636,-0.28723 0,-0.13717 1.05316,-2.34238 2.34021,-4.90031 3.49987,-6.95568 5.02102,-10.89081 6.7742,-17.52118 0.922,-3.48694 2.01677,-9.43949 2.26419,-12.31224 l 0.17296,-2.00705 -2.30755,-1.15963 c -2.58125,-1.29705 -2.59654,-1.26824 0.87802,-1.63004 l 1.63257,-0.16989 v -1.40147 c 0,-0.77092 -0.13333,-2.57494 -0.29642,-4.00902 l -0.29641,-2.60753 -1.20556,-0.25816 c -0.66301,-0.14195 -1.82267,-0.33997 -2.57693,-0.43977 -0.75425,-0.0998 -1.37136,-0.26701 -1.37136,-0.37193 0,-0.10491 0.96976,-0.59528 2.155,-1.08975 l 2.15502,-0.89945 -0.0617,-0.99996 c -0.0338,-0.55015 -0.56297,-2.48371 -1.17596,-4.29675 l -1.11425,-3.2963 -2.54632,0.0954 c -1.40047,0.0526 -2.54632,0.036 -2.54632,-0.0372 0,-0.0732 0.82283,-0.69547 1.82851,-1.38261 1.00565,-0.68713 1.82848,-1.30703 1.82848,-1.37748 0,-0.0705 -0.42379,-0.90212 -0.9418,-1.84789 -1.40878,-2.57216 -3.20441,-4.98469 -3.708,-4.98243 -0.24416,8.8e-4 -1.19786,0.23101 -2.11929,0.51119 -0.92144,0.28019 -1.77079,0.4503 -1.88768,0.37805 -0.11689,-0.0723 0.42707,-0.80174 1.20913,-1.62136 l 1.04689,-1.45606 -1.49279,-1.53259 c -0.82123,-0.84293 -2.49885,-2.10932 -3.54985,-2.95445 -2.15231,-1.73072 -1.6287,-1.76906 -3.71361,0.10764 -0.71393,0.64261 -1.20296,1.00205 -1.26424,0.94077 -0.0612,-0.0613 0.15118,-0.94285 0.47192,-1.95909 0.32074,-1.01625 0.52095,-1.48619 0.4454,-1.68309 -0.27763,-0.72346 -6.60465,-4.51294 -10.08683,-5.55537 -0.88277,-0.26426 -0.60175,-0.0336 -0.42396,0.81119 0.48838,2.32051 0.69217,5.98508 0.58621,6.09106 -0.0653,0.0653 -0.51896,-0.5938 -1.11833,-1.38667 -2.28245,-3.01935 -3.83481,-5.23044 -6.02831,-6.72675 -2.02537,-1.38162 -4.5976,-2.15378 -8.79503,-2.38919 -0.23487,-0.0132 -0.4174,-0.0206 -0.54845,-0.0149 z m -0.34742,27.88145 h 0.59384 l -0.65966,0.30967 c -0.84086,0.39496 -1.06973,0.66944 -1.16117,1.3923 -0.0405,0.32043 -0.1881,0.73613 -0.32806,0.92393 -0.73126,0.98116 -2.69561,1.45219 -4.19624,1.00608 v 5.2e-4 c -0.35806,-0.10649 -0.8591,-0.37143 -1.11322,-0.58875 l -0.46224,-0.39541 0.59437,-0.007 c 0.68782,-0.009 1.61718,-0.40796 2.77744,-1.19586 1.35354,-0.91918 2.79238,-1.44531 3.95494,-1.44585 z m 18.75735,1.50197 c 0.15874,-0.0201 1.55923,3.6551 2.11929,5.60794 1.33231,4.64524 1.84276,8.96624 1.58922,13.45197 -0.14954,2.6459 -1.02676,7.19194 -1.87135,9.69754 -1.43238,4.24963 -2.99234,7.6028 -5.65078,12.14948 -1.59821,2.73341 -2.25769,3.63546 -1.17647,1.60911 l 5.1e-4,5.1e-4 c 1.55113,-2.90697 3.47915,-7.62717 4.53092,-11.09239 0.83536,-2.75213 1.74331,-7.29557 1.95911,-9.80416 0.42111,-4.89103 -0.12701,-9.03657 -1.64942,-12.47805 l -0.71478,-1.61727 0.42091,-2.52438 c 0.36958,-2.21308 0.47427,-3.41555 0.42856,-4.9457 -8.8e-4,-0.0357 0.003,-0.0517 0.0143,-0.0545 z m 16.19472,69.76896 -22.13782,0.002 -22.137853,0.002 -0.05252,1.16169 c -0.09883,2.19445 -0.901977,3.12518 -4.190635,4.85439 -1.184498,0.62282 -2.470224,1.46251 -2.85702,1.86624 l -0.703541,0.73415 h 29.736999 29.7375 l -0.48774,-0.53875 c -0.26808,-0.29623 -1.49954,-1.06153 -2.7366,-1.70044 -3.21583,-1.66091 -4.17075,-2.89173 -4.17075,-5.37528 z m -22.07253,11.62399 c -33.675564,0 -33.697178,1.5e-4 -34.741381,0.5459 -0.643685,0.33641 -1.339791,1.02133 -1.813189,1.78359 -0.685065,1.1031 -0.769315,1.46862 -0.773946,3.37179 -0.0037,1.53527 0.122587,12.95687 0.448961,13.56739 l 0.453552,0.84894 h 36.295913 36.29589 l 0.46324,-0.7071 c 0.35795,-0.5463 0.46325,-11.83197 0.46325,-13.67504 0,-2.20392 -0.0572,-2.46693 -0.75456,-3.47333 -0.41505,-0.59892 -1.1791,-1.35332 -1.69788,-1.67594 l -0.94333,-0.5862 z" /><g
         id="g111"
         transform="translate(-22.041828,13.000753)"><path
           d="m 142.04125,64.052722 v 4.999695 a 80,80 0 0 1 80.00029,80.000283 80,80 0 0 1 -80.00029,79.99977 v 5.00021 c 46.94434,2.8e-4 85.00049,-38.05564 85.0005,-84.99998 -1e-5,-46.94435 -38.05616,-85.000254 -85.0005,-84.999978 z"
           style="fill:#003459;stroke-width:0.255767"
           id="path2" /><path
           d="M 142.04125,69.052417 A 80,80 0 0 0 62.041481,149.0527 80,80 0 0 0 142.04125,229.05247 v -4.9997 c -12.2361,-7e-5 -23.7765,-2.94919 -33.98036,-8.14627 a 75,75 0 0 1 -0.1359,-0.0693 c -3.43642,-1.75909 -6.7188,-3.77191 -9.822661,-6.0203 a 75,75 0 0 1 -0.243913,-0.17312 c -6.280885,-4.58791 -11.818707,-10.12588 -16.40675,-16.4067 a 75,75 0 0 1 -0.176734,-0.24805 c -2.247455,-3.10294 -4.259244,-6.3848 -6.01772,-9.82007 a 75,75 0 0 1 -0.06925,-0.13591 c -5.197013,-10.2039 -8.146286,-21.74425 -8.146273,-33.98035 -1.1e-5,-12.23561 2.949141,-23.77574 8.145756,-33.97932 a 75,75 0 0 1 0.0708,-0.1385 c 1.757887,-3.43393 3.768637,-6.71459 6.015137,-9.81645 a 75,75 0 0 1 0.179834,-0.2527 C 86.040051,98.587082 91.576174,93.051032 97.854799,88.464152 a 75,75 0 0 1 0.252697,-0.17983 c 3.102284,-2.24684 6.383044,-4.25809 9.817484,-6.016174 a 75,75 0 0 1 0.13591,-0.06925 c 10.20386,-5.197084 21.74426,-8.1462 33.98036,-8.146273 z"
           style="fill:#00a7e1;stroke-width:0.240722"
           id="path5" /><path
           id="path57"
           style="fill:#003459;stroke-width:0.255767"
           d="m 142.04109,74.02919 a 75,75 0 0 0 -33.98036,8.146273 c -0.0453,0.02308 -0.0907,0.04608 -0.1359,0.06925 a 75,75 0 0 0 -9.817494,6.016169 c -0.08372,0.0606 -0.169239,0.11886 -0.252697,0.17983 A 75,75 0 0 0 81.453056,104.84229 c -0.06097,0.0835 -0.119201,0.16898 -0.179834,0.2527 a 75,75 0 0 0 -6.015137,9.81646 c -0.02363,0.0462 -0.04726,0.0923 -0.0708,0.13849 a 75,75 0 0 0 -8.145756,33.97932 75,75 0 0 0 8.146273,33.98035 c 0.02308,0.0453 0.04608,0.0907 0.06925,0.13591 a 75,75 0 0 0 6.01772,9.82008 c 0.05954,0.0822 0.116872,0.16609 0.176734,0.24804 a 75,75 0 0 0 16.40675,16.40675 c 0.08049,0.0588 0.163182,0.11464 0.243913,0.17312 a 75,75 0 0 0 9.822661,6.0203 c 0.0453,0.0232 0.0906,0.0461 0.1359,0.0692 a 75,75 0 0 0 33.98036,8.14627 v -5.00021 c -0.11474,-0.007 -0.22946,-0.0148 -0.34416,-0.0227 0.004,-2.1e-4 0.009,-8.4e-4 0.0129,-0.001 a 70,70 0 0 1 -5.50096,-0.39326 l -10e-4,0.0346 c -0.32331,-0.027 -0.64077,-0.0725 -0.96274,-0.10387 a 70,70 0 0 1 -5.63634,-0.76378 c -1.52998,-0.27468 -3.03524,-0.61363 -4.52738,-0.98495 a 70,70 0 0 1 -4.90564,-1.40044 c -1.65548,-0.5433 -3.2764,-1.15754 -4.87309,-1.81746 a 70,70 0 0 1 -4.15737,-1.865 c -1.6945,-0.83403 -3.34314,-1.74294 -4.95525,-2.70578 a 70,70 0 0 1 -3.50728,-2.22208 c -1.71201,-1.1657 -3.366459,-2.40742 -4.963524,-3.71554 a 70,70 0 0 1 -2.796728,-2.41484 c -1.599611,-1.45729 -3.128284,-2.98849 -4.585767,-4.58576 A 70,70 0 0 1 88.1617,193.564 c -1.465881,-1.76703 -2.840685,-3.60961 -4.128947,-5.51543 a 70,70 0 0 1 -1.471744,-2.26032 c -1.353745,-2.17886 -2.583513,-4.43999 -3.695382,-6.76755 a 70,70 0 0 1 -0.781865,-1.6738 c -1.163052,-2.61034 -2.168116,-5.30399 -3.009118,-8.06772 a 70,70 0 0 1 -0.302307,-1.01183 c -0.847026,-2.94334 -1.511109,-5.96166 -1.968356,-9.04544 a 70,70 0 0 1 -0.07131,-0.52607 c -0.444498,-3.16298 -0.684919,-6.38887 -0.691431,-9.66659 0.0029,-3.28974 0.247024,-6.53251 0.695048,-9.71827 a 70,70 0 0 1 0.07906,-0.52658 c 0.46225,-3.11449 1.128194,-6.16985 1.990576,-9.14983 a 70,70 0 0 1 0.155546,-0.55294 c 0.896004,-3.00338 1.989141,-5.9277 3.266468,-8.75812 a 70,70 0 0 1 0.396358,-0.84336 c 1.239546,-2.65185 2.640733,-5.21684 4.194576,-7.68274 a 70,70 0 0 1 0.650606,-1.03508 c 1.611107,-2.46066 3.375633,-4.81658 5.281332,-7.05486 a 70,70 0 0 1 0.984436,-1.11518 c 1.825901,-2.05471 3.773391,-4.002208 5.834269,-5.833748 a 70,70 0 0 1 1.176672,-1.03973 c 2.178719,-1.85047 4.476443,-3.57235 6.883303,-5.15266 a 70,70 0 0 1 1.38906,-0.87333 c 2.26333,-1.41108 4.61725,-2.69833 7.05538,-3.85248 a 70,70 0 0 1 1.64538,-0.767905 c 2.43643,-1.076583 4.95759,-2.010202 7.54424,-2.813265 a 70,70 0 0 1 2.23812,-0.651123 c 0.48368,-0.132796 0.96274,-0.275495 1.45107,-0.398425 -0.0102,0.0313 -0.0193,0.05762 -0.0295,0.08888 a 70,70 0 0 1 2.00505,-0.436149 c -0.0263,-0.0095 -0.0507,-0.02106 -0.077,-0.03049 1.06632,-0.247003 2.14019,-0.456118 3.21583,-0.652673 a 70,70 0 0 1 3.50779,-0.54467 c 2.80623,-0.366903 5.63196,-0.581078 8.46615,-0.605648 z" /><path
           d="m 142.04125,74.02919 v 4.999695 c 1.25186,-7e-6 2.49534,0.03587 3.73104,0.100769 a 69.999999,69.999999 0 0 1 0.58653,0.04444 c 1.06635,0.06494 2.12775,0.147258 3.18068,0.259416 a 69.999999,69.999999 0 0 1 0.42582,0.05426 c 1.11472,0.125661 2.22197,0.274776 3.32021,0.452169 a 69.999999,69.999999 0 0 1 0.33486,0.05943 c 1.14433,0.190576 2.27909,0.408326 3.40393,0.653707 a 69.999999,69.999999 0 0 1 0.20567,0.04754 c 1.16777,0.258467 2.32399,0.545968 3.46904,0.861963 a 69.999999,69.999999 0 0 1 0.17776,0.05064 c 1.15726,0.322683 2.30165,0.674369 3.4339,1.054199 a 69.999999,69.999999 0 0 1 0.17002,0.05788 c 1.14334,0.386845 2.27295,0.80143 3.38894,1.244886 a 69.999999,69.999999 0 0 1 0.14314,0.05633 c 1.13997,0.455904 2.26552,0.938902 3.37499,1.452108 a 69.999999,69.999999 0 0 1 0.0687,0.03101 c 4.55236,2.11176 8.8427,4.68947 12.80129,7.68738 a 69.999999,69.999999 0 0 1 0.70486,0.55397 c 0.69708,0.54204 1.38777,1.09135 2.06344,1.65882 a 69.999999,69.999999 0 0 1 1.00304,0.8692 c 0.56423,0.4923 1.12367,0.98923 1.67173,1.49913 a 69.999999,69.999999 0 0 1 1.05885,1.01027 c 0.5175,0.50191 1.02726,1.01103 1.52911,1.528588 a 69.999999,69.999999 0 0 1 0.99684,1.04594 c 0.51325,0.55151 1.01351,1.11418 1.50895,1.68206 a 69.999999,69.999999 0 0 1 0.86661,1.00046 c 0.56084,0.6678 1.10369,1.35044 1.6397,2.03915 a 69.999999,69.999999 0 0 1 0.57826,0.73536 c 2.9947,3.95542 5.57002,8.24232 7.68015,12.79043 a 69.999999,69.999999 0 0 1 0.0357,0.0796 c 0.51204,1.10725 0.99405,2.23014 1.44901,3.36776 a 69.999999,69.999999 0 0 1 0.0563,0.14314 c 0.44461,1.11889 0.8608,2.25134 1.2485,3.39773 a 69.999999,69.999999 0 0 1 0.0512,0.15192 c 0.38279,1.14054 0.73716,2.29332 1.06195,3.45921 a 69.999999,69.999999 0 0 1 0.0434,0.15298 c 0.31696,1.14794 0.60541,2.30702 0.86455,3.47782 a 69.999999,69.999999 0 0 1 0.0475,0.20567 c 0.24745,1.13434 0.46716,2.27871 0.65887,3.43287 a 69.999999,69.999999 0 0 1 0.0532,0.29559 c 0.17877,1.10573 0.32894,2.2205 0.45527,3.34295 a 69.999999,69.999999 0 0 1 0.0522,0.41237 c 0.11221,1.05327 0.19446,2.11502 0.25942,3.18172 a 69.999999,69.999999 0 0 1 0.0444,0.58653 c 0.0649,1.2357 0.10078,2.47917 0.10077,3.73104 -2e-5,11.41941 -2.75179,22.18975 -7.6016,31.71279 a 69.999999,69.999999 0 0 1 -0.0677,0.13178 c -1.64096,3.2053 -3.51808,6.26745 -5.61516,9.16274 a 69.999999,69.999999 0 0 1 -0.16485,0.23203 c -4.2812,5.86062 -9.44869,11.02772 -15.30914,15.30914 a 69.999999,69.999999 0 0 1 -0.23668,0.16847 c -2.89516,2.09678 -5.95713,3.97341 -9.16223,5.61413 a 69.999999,69.999999 0 0 1 -0.12919,0.0667 c -9.52328,4.85001 -20.29407,7.60218 -31.71383,7.60212 v 5.00021 a 75,75 0 0 0 73.36141,-59.40671 75,75 0 0 0 1.22784,-7.75405 75,75 0 0 0 0.41082,-7.83931 75,75 0 0 0 -24.81502,-55.736138 75,75 0 0 0 -6.10092,-4.94026 75,75 0 0 0 -13.5785,-7.839835 75,75 0 0 0 -7.32927,-2.813265 75,75 0 0 0 -23.17636,-3.670577 z"
           style="fill:#00a7e1;stroke-width:0.225678"
           id="path6" /><path
           d="m 99.276111,76.308004 a 85,85 0 0 0 -84.99998,84.999976 85,85 0 0 0 84.99998,84.99998 v -5.00021 A 80,80 0 0 1 19.276343,161.30798 80,80 0 0 1 99.276111,81.307699 Z"
           style="fill:#007ea7;fill-opacity:1;stroke-width:0.255767"
           id="path31"
           transform="translate(42.765297,-12.278817)" /><path
           d="m 99.276111,81.307699 v 5.000211 a 75,75 0 0 1 75.000069,75.00007 75,75 0 0 1 -75.000069,75.00008 v 4.99969 A 80,80 0 0 0 179.2764,161.30798 80,80 0 0 0 99.276111,81.307699 Z"
           style="fill:#007ea7;fill-opacity:1;stroke-width:0.240722"
           id="path32"
           transform="translate(42.765297,-12.278817)" /></g></g></g><g
     id="g120"
     transform="translate(-19.999761,-63.500022)"
     style="display:inline"><g
       id="g122"
       transform="translate(0,1.4583364)"><path
         id="path113"
         style="fill:#f9f9f9;fill-opacity:1;stroke-width:0.987264"
         d="m 108.52843,103.88543 c -0.39313,0.0174 -0.31984,0.1554 0.21734,0.62702 4.23871,3.72098 6.04599,7.11684 5.85383,8.5634 -0.0877,0.66025 -8.61376,-10.54746 -17.910467,1.00914 l -0.263254,0.36937 0.828536,8.9e-4 c 2.965245,0.006 9.615745,0.55391 6.869105,4.00798 -0.2808,0.35313 -3.09088,5.80342 -3.83658,7.43284 -0.433762,0.94777 -0.98827,2.28444 -1.232092,2.97029 -0.439391,1.23589 -0.443425,1.26773 -0.448448,3.62281 -0.0062,2.24812 -0.02471,2.4325 -0.369885,3.42076 -0.570973,1.63495 -1.323877,3.34826 -2.790185,6.3482 -1.410738,2.88625 -2.202827,4.1202 -4.258492,6.6334 -1.438548,1.75872 -1.678632,2.29446 -1.578504,3.5233 0.08688,1.06581 0.46655,2.28693 1.499935,4.82633 1.019605,2.50556 1.812604,4.08746 2.335616,4.65848 0.417276,0.45554 0.501795,0.48977 1.201989,0.48977 0.414174,0 1.534669,-0.18224 2.4902,-0.40508 2.167801,-0.50556 3.394346,-0.60974 4.568196,-0.38826 0.49522,0.0934 1.05454,0.13115 1.24331,0.0837 0.59027,-0.14814 1.22318,-0.836 1.80706,-1.96472 1.92551,-3.7223 3.17579,-4.64261 6.75839,-4.97529 2.24412,-0.20839 4.08588,-0.93672 6.04004,-2.38816 0.98421,-0.73102 2.05814,-1.8019 2.57591,-2.56876 l 0.35662,-0.52804 -0.0958,0.59384 c -0.14496,0.8996 -0.54493,2.10626 -0.99996,3.22794 0.11233,-0.19969 0.22288,-0.40106 0.33163,-0.60407 -1.58039,3.49506 -4.17825,7.05693 -8.08894,11.12198 -9.70781,10.09096 -13.058775,14.90155 -14.56623,20.91237 -0.44625,1.77937 -0.98332,6.25179 -0.788743,6.56809 0.06217,0.10106 -0.336768,0.30495 -0.886696,0.45303 -1.813194,0.48825 -2.936564,2.11501 -2.929976,4.2437 0.0053,1.7264 0.806012,3.22929 2.081544,3.908 0.868575,0.46218 2.08621,0.48456 26.643761,0.48416 23.98327,-3.8e-4 25.79422,-0.0315 26.62897,-0.45712 1.42983,-0.7291 1.94912,-1.65802 2.04889,-3.66516 0.15635,-3.1452 -1.06288,-4.45878 -4.20186,-4.52684 -0.96042,-0.0208 -1.74636,-0.15005 -1.74636,-0.28723 0,-0.13717 1.05316,-2.34238 2.34021,-4.90031 3.49987,-6.95568 5.02102,-10.89081 6.7742,-17.52118 0.922,-3.48694 2.01677,-9.43949 2.26419,-12.31224 l 0.17296,-2.00705 -2.30755,-1.15963 c -2.58125,-1.29705 -2.59654,-1.26824 0.87802,-1.63004 l 1.63257,-0.16989 v -1.40147 c 0,-0.77092 -0.13333,-2.57494 -0.29642,-4.00902 l -0.29641,-2.60753 -1.20556,-0.25816 c -0.66301,-0.14195 -1.82267,-0.33997 -2.57693,-0.43977 -0.75425,-0.0998 -1.37136,-0.26701 -1.37136,-0.37193 0,-0.10491 0.96976,-0.59528 2.155,-1.08975 l 2.15502,-0.89945 -0.0617,-0.99996 c -0.0338,-0.55015 -0.56297,-2.48371 -1.17596,-4.29675 l -1.11425,-3.2963 -2.54632,0.0954 c -1.40047,0.0526 -2.54632,0.036 -2.54632,-0.0372 0,-0.0732 0.82283,-0.69547 1.82851,-1.38261 1.00565,-0.68713 1.82848,-1.30703 1.82848,-1.37748 0,-0.0705 -0.42379,-0.90212 -0.9418,-1.84789 -1.40878,-2.57216 -3.20441,-4.98469 -3.708,-4.98243 -0.24416,8.8e-4 -1.19786,0.23101 -2.11929,0.51119 -0.92144,0.28019 -1.77079,0.4503 -1.88768,0.37805 -0.11689,-0.0723 0.42707,-0.80174 1.20913,-1.62136 l 1.04689,-1.45606 -1.49279,-1.53259 c -0.82123,-0.84293 -2.49885,-2.10932 -3.54985,-2.95445 -2.15231,-1.73072 -1.6287,-1.76906 -3.71361,0.10764 -0.71393,0.64261 -1.20296,1.00205 -1.26424,0.94077 -0.0612,-0.0613 0.15118,-0.94285 0.47192,-1.95909 0.32074,-1.01625 0.52095,-1.48619 0.4454,-1.68309 -0.27763,-0.72346 -6.60465,-4.51294 -10.08683,-5.55537 -0.88277,-0.26426 -0.60175,-0.0336 -0.42396,0.81119 0.48838,2.32051 0.69217,5.98508 0.58621,6.09106 -0.0653,0.0653 -0.51896,-0.5938 -1.11833,-1.38667 -2.28245,-3.01935 -3.83481,-5.23044 -6.02831,-6.72675 -2.02537,-1.38162 -4.5976,-2.15378 -8.79503,-2.38919 -0.23487,-0.0132 -0.4174,-0.0206 -0.54845,-0.0149 z m -0.34742,27.88145 h 0.59384 l -0.65966,0.30967 c -0.84086,0.39496 -1.06973,0.66944 -1.16117,1.3923 -0.0405,0.32043 -0.1881,0.73613 -0.32806,0.92393 -0.73126,0.98116 -2.69561,1.45219 -4.19624,1.00608 v 5.2e-4 c -0.35806,-0.10649 -0.8591,-0.37143 -1.11322,-0.58875 l -0.46224,-0.39541 0.59437,-0.007 c 0.68782,-0.009 1.61718,-0.40796 2.77744,-1.19586 1.35354,-0.91918 2.79238,-1.44531 3.95494,-1.44585 z m 18.75735,1.50197 c 0.15874,-0.0201 1.55923,3.6551 2.11929,5.60794 1.33231,4.64524 1.84276,8.96624 1.58922,13.45197 -0.14954,2.6459 -1.02676,7.19194 -1.87135,9.69754 -1.43238,4.24963 -2.99234,7.6028 -5.65078,12.14948 -1.59821,2.73341 -2.25769,3.63546 -1.17647,1.60911 l 5.1e-4,5.1e-4 c 1.55113,-2.90697 3.47915,-7.62717 4.53092,-11.09239 0.83536,-2.75213 1.74331,-7.29557 1.95911,-9.80416 0.42111,-4.89103 -0.12701,-9.03657 -1.64942,-12.47805 l -0.71478,-1.61727 0.42091,-2.52438 c 0.36958,-2.21308 0.47427,-3.41555 0.42856,-4.9457 -8.8e-4,-0.0357 0.003,-0.0517 0.0143,-0.0545 z m 16.19472,69.76896 -22.13782,0.002 -22.137853,0.002 -0.05252,1.16169 c -0.09883,2.19445 -0.901977,3.12518 -4.190635,4.85439 -1.184498,0.62282 -2.470224,1.46251 -2.85702,1.86624 l -0.703541,0.73415 h 29.736999 29.7375 l -0.48774,-0.53875 c -0.26808,-0.29623 -1.49954,-1.06153 -2.7366,-1.70044 -3.21583,-1.66091 -4.17075,-2.89173 -4.17075,-5.37528 z m -22.07253,11.62399 c -33.675564,0 -33.697178,1.5e-4 -34.741381,0.5459 -0.643685,0.33641 -1.339791,1.02133 -1.813189,1.78359 -0.685065,1.1031 -0.769315,1.46862 -0.773946,3.37179 -0.0037,1.53527 0.122587,12.95687 0.448961,13.56739 l 0.453552,0.84894 h 36.295913 36.29589 l 0.46324,-0.7071 c 0.35795,-0.5463 0.46325,-11.83197 0.46325,-13.67504 0,-2.20392 -0.0572,-2.46693 -0.75456,-3.47333 -0.41505,-0.59892 -1.1791,-1.35332 -1.69788,-1.67594 l -0.94333,-0.5862 z" /><g
         id="g119"
         transform="matrix(-1,0,0,1,262.04135,13.000753)"><path
           d="m 142.04125,64.052722 v 4.999695 a 80,80 0 0 1 80.00029,80.000283 80,80 0 0 1 -80.00029,79.99977 v 5.00021 c 46.94434,2.8e-4 85.00049,-38.05564 85.0005,-84.99998 -1e-5,-46.94435 -38.05616,-85.000254 -85.0005,-84.999978 z"
           style="display:inline;fill:#1a1a1a;stroke-width:0.255767"
           id="path114" /><path
           id="path116"
           style="fill:#1a1a1a;stroke-width:0.255767"
           d="m 142.04109,74.02919 a 75,75 0 0 0 -33.98036,8.146273 c -0.0453,0.02308 -0.0907,0.04608 -0.1359,0.06925 a 75,75 0 0 0 -9.817494,6.016169 c -0.08372,0.0606 -0.169239,0.11886 -0.252697,0.17983 A 75,75 0 0 0 81.453056,104.84229 c -0.06097,0.0835 -0.119201,0.16898 -0.179834,0.2527 a 75,75 0 0 0 -6.015137,9.81646 c -0.02363,0.0462 -0.04726,0.0923 -0.0708,0.13849 a 75,75 0 0 0 -8.145756,33.97932 75,75 0 0 0 8.146273,33.98035 c 0.02308,0.0453 0.04608,0.0907 0.06925,0.13591 a 75,75 0 0 0 6.01772,9.82008 c 0.05954,0.0822 0.116872,0.16609 0.176734,0.24804 a 75,75 0 0 0 16.40675,16.40675 c 0.08049,0.0588 0.163182,0.11464 0.243913,0.17312 a 75,75 0 0 0 9.822661,6.0203 c 0.0453,0.0232 0.0906,0.0461 0.1359,0.0692 a 75,75 0 0 0 33.98036,8.14627 v -5.00021 c -0.11474,-0.007 -0.22946,-0.0148 -0.34416,-0.0227 0.004,-2.1e-4 0.009,-8.4e-4 0.0129,-0.001 a 70,70 0 0 1 -5.50096,-0.39326 l -10e-4,0.0346 c -0.32331,-0.027 -0.64077,-0.0725 -0.96274,-0.10387 a 70,70 0 0 1 -5.63634,-0.76378 c -1.52998,-0.27468 -3.03524,-0.61363 -4.52738,-0.98495 a 70,70 0 0 1 -4.90564,-1.40044 c -1.65548,-0.5433 -3.2764,-1.15754 -4.87309,-1.81746 a 70,70 0 0 1 -4.15737,-1.865 c -1.6945,-0.83403 -3.34314,-1.74294 -4.95525,-2.70578 a 70,70 0 0 1 -3.50728,-2.22208 c -1.71201,-1.1657 -3.366459,-2.40742 -4.963524,-3.71554 a 70,70 0 0 1 -2.796728,-2.41484 c -1.599611,-1.45729 -3.128284,-2.98849 -4.585767,-4.58576 A 70,70 0 0 1 88.1617,193.564 c -1.465881,-1.76703 -2.840685,-3.60961 -4.128947,-5.51543 a 70,70 0 0 1 -1.471744,-2.26032 c -1.353745,-2.17886 -2.583513,-4.43999 -3.695382,-6.76755 a 70,70 0 0 1 -0.781865,-1.6738 c -1.163052,-2.61034 -2.168116,-5.30399 -3.009118,-8.06772 a 70,70 0 0 1 -0.302307,-1.01183 c -0.847026,-2.94334 -1.511109,-5.96166 -1.968356,-9.04544 a 70,70 0 0 1 -0.07131,-0.52607 c -0.444498,-3.16298 -0.684919,-6.38887 -0.691431,-9.66659 0.0029,-3.28974 0.247024,-6.53251 0.695048,-9.71827 a 70,70 0 0 1 0.07906,-0.52658 c 0.46225,-3.11449 1.128194,-6.16985 1.990576,-9.14983 a 70,70 0 0 1 0.155546,-0.55294 c 0.896004,-3.00338 1.989141,-5.9277 3.266468,-8.75812 a 70,70 0 0 1 0.396358,-0.84336 c 1.239546,-2.65185 2.640733,-5.21684 4.194576,-7.68274 a 70,70 0 0 1 0.650606,-1.03508 c 1.611107,-2.46066 3.375633,-4.81658 5.281332,-7.05486 a 70,70 0 0 1 0.984436,-1.11518 c 1.825901,-2.05471 3.773391,-4.002208 5.834269,-5.833748 a 70,70 0 0 1 1.176672,-1.03973 c 2.178719,-1.85047 4.476443,-3.57235 6.883303,-5.15266 a 70,70 0 0 1 1.38906,-0.87333 c 2.26333,-1.41108 4.61725,-2.69833 7.05538,-3.85248 a 70,70 0 0 1 1.64538,-0.767905 c 2.43643,-1.076583 4.95759,-2.010202 7.54424,-2.813265 a 70,70 0 0 1 2.23812,-0.651123 c 0.48368,-0.132796 0.96274,-0.275495 1.45107,-0.398425 -0.0102,0.0313 -0.0193,0.05762 -0.0295,0.08888 a 70,70 0 0 1 2.00505,-0.436149 c -0.0263,-0.0095 -0.0507,-0.02106 -0.077,-0.03049 1.06632,-0.247003 2.14019,-0.456118 3.21583,-0.652673 a 70,70 0 0 1 3.50779,-0.54467 c 2.80623,-0.366903 5.63196,-0.581078 8.46615,-0.605648 z"
           transform="translate(1.125e-6)" /><path
           d="M 142.04125,69.052417 A 80,80 0 0 0 62.041481,149.0527 80,80 0 0 0 142.04125,229.05247 v -4.9997 c -12.2361,-7e-5 -23.7765,-2.94919 -33.98036,-8.14627 a 75,75 0 0 1 -0.1359,-0.0693 c -3.43642,-1.75909 -6.7188,-3.77191 -9.822661,-6.0203 a 75,75 0 0 1 -0.243913,-0.17312 c -6.280885,-4.58791 -11.818707,-10.12588 -16.40675,-16.4067 a 75,75 0 0 1 -0.176734,-0.24805 c -2.247455,-3.10294 -4.259244,-6.3848 -6.01772,-9.82007 a 75,75 0 0 1 -0.06925,-0.13591 c -5.197013,-10.2039 -8.146286,-21.74425 -8.146273,-33.98035 -1.1e-5,-12.23561 2.949141,-23.77574 8.145756,-33.97932 a 75,75 0 0 1 0.0708,-0.1385 c 1.757887,-3.43393 3.768637,-6.71459 6.015137,-9.81645 a 75,75 0 0 1 0.179834,-0.2527 C 86.040051,98.587082 91.576174,93.051032 97.854799,88.464152 a 75,75 0 0 1 0.252697,-0.17983 c 3.102284,-2.24684 6.383044,-4.25809 9.817484,-6.016174 a 75,75 0 0 1 0.13591,-0.06925 c 10.20386,-5.197084 21.74426,-8.1462 33.98036,-8.146273 z"
           style="fill:#00a7e1;stroke-width:0.240722"
           id="path115" /><path
           d="m 142.04125,74.02919 v 4.999695 c 1.25186,-7e-6 2.49534,0.03587 3.73104,0.100769 a 69.999999,69.999999 0 0 1 0.58653,0.04444 c 1.06635,0.06494 2.12775,0.147258 3.18068,0.259416 a 69.999999,69.999999 0 0 1 0.42582,0.05426 c 1.11472,0.125661 2.22197,0.274776 3.32021,0.452169 a 69.999999,69.999999 0 0 1 0.33486,0.05943 c 1.14433,0.190576 2.27909,0.408326 3.40393,0.653707 a 69.999999,69.999999 0 0 1 0.20567,0.04754 c 1.16777,0.258467 2.32399,0.545968 3.46904,0.861963 a 69.999999,69.999999 0 0 1 0.17776,0.05064 c 1.15726,0.322683 2.30165,0.674369 3.4339,1.054199 a 69.999999,69.999999 0 0 1 0.17002,0.05788 c 1.14334,0.386845 2.27295,0.80143 3.38894,1.244886 a 69.999999,69.999999 0 0 1 0.14314,0.05633 c 1.13997,0.455904 2.26552,0.938902 3.37499,1.452108 a 69.999999,69.999999 0 0 1 0.0687,0.03101 c 4.55236,2.11176 8.8427,4.68947 12.80129,7.68738 a 69.999999,69.999999 0 0 1 0.70486,0.55397 c 0.69708,0.54204 1.38777,1.09135 2.06344,1.65882 a 69.999999,69.999999 0 0 1 1.00304,0.8692 c 0.56423,0.4923 1.12367,0.98923 1.67173,1.49913 a 69.999999,69.999999 0 0 1 1.05885,1.01027 c 0.5175,0.50191 1.02726,1.01103 1.52911,1.528588 a 69.999999,69.999999 0 0 1 0.99684,1.04594 c 0.51325,0.55151 1.01351,1.11418 1.50895,1.68206 a 69.999999,69.999999 0 0 1 0.86661,1.00046 c 0.56084,0.6678 1.10369,1.35044 1.6397,2.03915 a 69.999999,69.999999 0 0 1 0.57826,0.73536 c 2.9947,3.95542 5.57002,8.24232 7.68015,12.79043 a 69.999999,69.999999 0 0 1 0.0357,0.0796 c 0.51204,1.10725 0.99405,2.23014 1.44901,3.36776 a 69.999999,69.999999 0 0 1 0.0563,0.14314 c 0.44461,1.11889 0.8608,2.25134 1.2485,3.39773 a 69.999999,69.999999 0 0 1 0.0512,0.15192 c 0.38279,1.14054 0.73716,2.29332 1.06195,3.45921 a 69.999999,69.999999 0 0 1 0.0434,0.15298 c 0.31696,1.14794 0.60541,2.30702 0.86455,3.47782 a 69.999999,69.999999 0 0 1 0.0475,0.20567 c 0.24745,1.13434 0.46716,2.27871 0.65887,3.43287 a 69.999999,69.999999 0 0 1 0.0532,0.29559 c 0.17877,1.10573 0.32894,2.2205 0.45527,3.34295 a 69.999999,69.999999 0 0 1 0.0522,0.41237 c 0.11221,1.05327 0.19446,2.11502 0.25942,3.18172 a 69.999999,69.999999 0 0 1 0.0444,0.58653 c 0.0649,1.2357 0.10078,2.47917 0.10077,3.73104 -2e-5,11.41941 -2.75179,22.18975 -7.6016,31.71279 a 69.999999,69.999999 0 0 1 -0.0677,0.13178 c -1.64096,3.2053 -3.51808,6.26745 -5.61516,9.16274 a 69.999999,69.999999 0 0 1 -0.16485,0.23203 c -4.2812,5.86062 -9.44869,11.02772 -15.30914,15.30914 a 69.999999,69.999999 0 0 1 -0.23668,0.16847 c -2.89516,2.09678 -5.95713,3.97341 -9.16223,5.61413 a 69.999999,69.999999 0 0 1 -0.12919,0.0667 c -9.52328,4.85001 -20.29407,7.60218 -31.71383,7.60212 v 5.00021 a 75,75 0 0 0 73.36141,-59.40671 75,75 0 0 0 1.22784,-7.75405 75,75 0 0 0 0.41082,-7.83931 75,75 0 0 0 -24.81502,-55.736138 75,75 0 0 0 -6.10092,-4.94026 75,75 0 0 0 -13.5785,-7.839835 75,75 0 0 0 -7.32927,-2.813265 75,75 0 0 0 -23.17636,-3.670577 z"
           style="fill:#00a7e1;stroke-width:0.225678"
           id="path117" /><path
           d="m 99.276111,76.308004 a 85,85 0 0 0 -84.99998,84.999976 85,85 0 0 0 84.99998,84.99998 v -5.00021 A 80,80 0 0 1 19.276343,161.30798 80,80 0 0 1 99.276111,81.307699 Z"
           style="fill:#007ea7;fill-opacity:1;stroke-width:0.255767"
           id="path118"
           transform="translate(42.765297,-12.278817)" /><path
           d="m 99.276111,81.307699 v 5.000211 a 75,75 0 0 1 75.000069,75.00007 75,75 0 0 1 -75.000069,75.00008 v 4.99969 A 80,80 0 0 0 179.2764,161.30798 80,80 0 0 0 99.276111,81.307699 Z"
           style="fill:#007ea7;fill-opacity:1;stroke-width:0.240722"
           id="path119"
           transform="translate(42.765297,-12.278817)" /></g></g></g><g
     id="layer2"
     style="display:none"><g
       id="g110"
       transform="translate(45.718501,-30.192418)"><text
         xml:space="preserve"
         style="font-size:30.2595px;letter-spacing:0px;fill:#000000;fill-opacity:1;stroke-width:0.354602"
         x="-141.86848"
         y="248.04729"
         id="text109"><tspan
           id="tspan109"
           style="font-style:normal;font-variant:normal;font-weight:bold;font-stretch:normal;font-size:30.2595px;font-family:Cantarell;-inkscape-font-specification:'Cantarell Bold';text-align:center;letter-spacing:0px;text-anchor:middle;stroke-width:0.354602"
           x="-141.86848"
           y="248.04729">Resoluts</tspan></text><text
         xml:space="preserve"
         style="font-style:normal;font-variant:normal;font-weight:normal;font-stretch:normal;font-size:13.6992px;font-family:Strasua;-inkscape-font-specification:Strasua;text-align:center;letter-spacing:1.2843px;text-anchor:middle;fill:#003459;fill-opacity:1;stroke-width:0.321075"
         x="-140.94324"
         y="267.21805"
         id="text110"><tspan
           id="tspan110"
           style="font-style:normal;font-variant:normal;font-weight:normal;font-stretch:normal;font-size:13.6992px;font-family:Strasua;-inkscape-font-specification:Strasua;letter-spacing:1.2843px;fill:#003459;fill-opacity:1;stroke-width:0.321075"
           x="-140.30109"
           y="267.21805">software</tspan></text></g></g><metadata
     id="metadata1"><rdf:RDF><cc:Work
         rdf:about=""><dc:description>Fontes:
Cantarell Bold
Strasua
</dc:description></cc:Work></rdf:RDF></metadata></svg>
