<?xml version="1.0" encoding="UTF-8" standalone="no"?>
<!-- Created with Inkscape (http://www.inkscape.org/) -->

<svg
   width="10mm"
   height="9.999939mm"
   viewBox="0 0 10 9.999939"
   version="1.1"
   id="svg1"
   xml:space="preserve"
   xmlns="http://www.w3.org/2000/svg"
   xmlns:svg="http://www.w3.org/2000/svg"><defs
     id="defs1" /><g
     id="layer1"
     transform="translate(12.642616,-241.46334)"><path
       style="fill:#f9f9f9;stroke-width:0.698524"
       d="m -8.3346405,251.43546 c -1.5466749,-0.23635 -2.8107255,-1.08485 -3.6222965,-2.43147 -0.442371,-0.73401 -0.68628,-1.63777 -0.685677,-2.54064 0.0017,-2.51378 1.871333,-4.63553 4.3695032,-4.95867 1.8889711,-0.24434 3.7458108,0.60778 4.8169898,2.21057 0.4152569,0.62135 0.6984843,1.39988 0.793915,2.18231 0.038258,0.31368 0.017425,1.13622 -0.036002,1.4213 -0.3904754,2.0836 -1.8983615,3.63132 -3.962212,4.0669 -0.2735869,0.0577 -0.3873076,0.0675 -0.8797646,0.0755 -0.398738,0.006 -0.63308,-0.001 -0.7944559,-0.0258 z m -1.2067637,-2.26989 0.786033,-0.18757 0.1784601,0.0763 c 1.1716739,0.50095 2.5561742,0.20797 3.438302,-0.72751 0.8807667,-0.93403 1.0931683,-2.29119 0.5379238,-3.43709 -0.3163692,-0.65292 -0.7799892,-1.12446 -1.4098322,-1.43392 -0.4688544,-0.23036 -0.8519578,-0.31857 -1.3824878,-0.31832 -0.8261964,4e-4 -1.5702503,0.31061 -2.1598971,0.90049 -0.8873546,0.88771 -1.1504426,2.24298 -0.6571366,3.38511 l 0.08412,0.19476 -0.160504,0.77337 c -0.08828,0.42535 -0.160531,0.80392 -0.160564,0.84127 -5.3e-5,0.0587 0.0507,0.11736 0.103731,0.11993 0.0087,4.2e-4 0.3574023,-0.18682 0.8018488,-0.18682 z m 1.8719018,-0.55943 c 0.2241605,0 -0.5257372,-0.12204 -0.7464333,-0.22589 l -0.2489172,-0.11713 -0.4489533,0.10496 c -0.2469185,0.0577 -0.4599122,0.10496 -0.4733058,0.10496 -0.013395,0 0.019615,-0.21507 0.073355,-0.47793 l 0.097707,-0.47792 -0.097204,-0.19474 c -0.1934495,-0.38756 -0.2648133,-0.69759 -0.2618843,-1.13772 0.0017,-0.25234 0.01497,-0.36392 0.067394,-0.56579 0.4192203,-1.61432 2.3116839,-2.33085 3.684659,-1.39509 0.4767852,0.32496 0.8443292,0.85492 0.9849788,1.42024 0.083372,0.3351 0.078395,0.83646 -0.011663,1.17463 -0.2859791,1.07388 -1.270652,1.82425 -2.3639077,1.80142 -0.09923,-0.002 -0.2977323,-0.014 -0.2558263,-0.014 z m 1.4529582,-0.94656 c -0.2262575,0 0.4943342,-0.41187 0.494828,-0.5619 4.742e-4,-0.14429 -0.076802,-0.19577 -0.4630047,-0.30841 -0.1997392,-0.0583 -0.3725033,-0.0955 -0.4021783,-0.0866 -0.028613,0.009 -0.1029223,0.0645 -0.1651344,0.12455 -0.1487012,0.14337 -0.2277331,0.17276 -0.3392161,0.12616 -0.3217874,-0.13451 -0.9945125,-0.76222 -1.0332895,-0.96415 -0.01262,-0.0657 -0.00126,-0.10326 0.056227,-0.18564 0.1392068,-0.19954 0.1597546,-0.2353 0.1598859,-0.27817 2.41e-4,-0.0789 -0.2794652,-0.68501 -0.3426941,-0.74257 -0.127939,-0.11646 -0.2854623,-0.0501 -0.4931365,0.2078 -0.1888862,0.23456 -0.2274028,0.41908 -0.1569366,0.75184 0.073543,0.34729 0.2670194,0.66899 0.627252,1.04295 0.6085129,0.63169 1.2119773,0.94816 1.7607024,0.92334 0.1105995,-0.005 0.3537359,-0.0492 0.2966965,-0.0492 z"
       id="path3" /></g></svg>
